<svg viewBox="0 0 26 26" xmlns="http://www.w3.org/2000/svg"><path d="M13 0c7.18 0 13 5.82 13 13s-5.82 13-13 13S0 20.18 0 13 5.82 0 13 0Zm0 2C6.925 2 2 6.925 2 13s4.925 11 11 11 11-4.925 11-11S19.075 2 13 2ZM7 15a1 1 0 1 1 0 2 1 1 0 0 1 0-2Zm2 0a1 1 0 1 1 0 2 1 1 0 0 1 0-2Zm-2-2a1 1 0 1 1 0 2 1 1 0 0 1 0-2Zm2 0a1 1 0 1 1 0 2 1 1 0 0 1 0-2Zm-.5-5a3.5 3.5 0 0 1 3.5 3.5 12.74 12.74 0 0 0-2.708-.466l-.044.116c-.026.074-.05.152-.073.238l-.094.387-.112.475-.009.03a1 1 0 0 1-1.92-.56l.001-.014.09-.381.062-.248A12.74 12.74 0 0 0 5 11.5 3.5 3.5 0 0 1 8.5 8Zm9 0a3.5 3.5 0 0 1 3.5 3.5 12.74 12.74 0 0 0-7 0A3.5 3.5 0 0 1 17.5 8Z" fill="currentColor" fill-rule="nonzero"/></svg>
