<svg viewBox="0 0 30 26" xmlns="http://www.w3.org/2000/svg"><path d="M13.728 5.267c1.29.42 2.096 1.27 2.405 2.545l.061.29.803-.154.064-.011c.835-.145 1.537-.152 2.214.017a3.54 3.54 0 0 1 2.662 3.22c.012.196.017.394.015.591l-.009.297c-.003.052-.006.057.026.074l.032.015c.284.137.567.29.851.46 1.6.94 2.279 2.394 2.102 4.312-.252 2.736-1.656 4.87-4.123 6.519-1.725 1.154-3.711 1.837-6.004 2.126-2.426.307-4.736.115-6.944-.606-2.04-.666-3.708-1.688-5.013-3.142C1.604 20.41.904 18.807.8 17.006l-.019-.133L.75 16.7l.005-.222.144-.756.05-.25.077-.32c.628-2.426 1.927-4.573 3.871-6.555 1.395-1.422 2.843-2.46 4.449-3.12 1.464-.601 2.931-.683 4.382-.21Zm-3.569 2.087-.24.108-.224.112c-3.049 1.62-5.199 4.042-6.435 7.255-.47 1.22-.543 2.33-.17 3.415.518 1.505 1.517 2.687 2.993 3.626 1.876 1.193 4.027 1.762 6.569 1.841l1.707-.173.466-.056.274-.04.27-.045c2.141-.375 3.916-1.167 5.355-2.46 1.445-1.298 2.187-2.811 2.187-4.611 0-.843-.34-1.468-1.038-1.893l-.118-.07-.244-.138-.278-.144-.659-.322c-.523-.25-.727-.538-.728-1.068l.007-.193.038-.622.003-.078c.003-.091.003-.175.001-.256-.01-.475-.147-.865-.43-1.182-.39-.435-.903-.558-1.626-.453l-.264.04-.273.048-.486.093-.93.191-.175.035c-.855.167-1.365-.218-1.442-1.082a7.073 7.073 0 0 0-.12-.82c-.131-.619-.48-1.005-1.093-1.202-.969-.313-1.934-.256-2.897.144Zm6.58 4.136c1.71.692 2.851 1.821 3.334 3.44.525 1.76.112 3.418-1.128 4.943-1.294 1.594-3.046 2.578-5.232 3.026l-.24.045-.249.04-.45.056-1.05.116c-1.595-.053-2.943-.393-4.135-1.105-2.723-1.628-3.434-4.783-1.664-7.408 1.05-1.56 2.558-2.623 4.491-3.246 2.226-.717 4.33-.713 6.324.093Zm-5.827 1.911-.324.123-.308.128c-1.278.553-2.23 1.357-2.842 2.458-.778 1.4-.475 2.895.787 3.883.912.715 2.028 1.044 3.298 1.065 1.324 0 2.444-.238 3.525-.738 1.199-.555 2.089-1.295 2.684-2.289.474-.794.623-1.57.414-2.363-.29-1.105-1.047-1.844-2.248-2.3-1.61-.612-3.262-.583-4.986.033Zm.884 3.125c.77.017 1.372.611 1.364 1.356-.005.82-.762 1.5-1.637 1.494-.783 0-1.406-.61-1.388-1.369.02-.813.797-1.497 1.661-1.48ZM20.606.315l.734.006 1.006.162.256.05.226.055.112.032c3.378.987 5.434 3.204 6.1 6.624.049.246.07.496.08.838l.008.347c.014.601-.403 1.05-.987 1.064-.597.015-1.035-.418-1.053-1.033-.06-2.038-.912-3.657-2.557-4.87a6.11 6.11 0 0 0-3.359-1.187l-.28-.016-.19-.016c-.506-.052-.862-.376-.946-.864-.077-.436.168-.872.59-1.084l.139-.077.122-.031Zm.582 4.139.196.01c2.008.15 3.671 1.912 3.665 3.932 0 .62-.411 1.072-1 1.083-.587.01-1.008-.41-1.045-1.032l-.017-.17c-.13-1.005-.87-1.71-1.882-1.779l-.137-.013c-.619-.086-.985-.465-.966-1.05.02-.626.488-.996 1.186-.981Z" fill="currentColor" fill-rule="nonzero"/></svg>
