<svg viewBox="0 0 28 22" xmlns="http://www.w3.org/2000/svg"><path d="M14.251.052c1.292.01 2.899.082 4.61.254 2.596.261 4.865.702 6.622 1.377a2.99 2.99 0 0 1 1.808 2.042C27.725 5.39 28 7.775 28 11c0 .806-.017 1.56-.05 2.263l-.046.819c-.116 1.723-.33 3.109-.611 4.188a2.99 2.99 0 0 1-1.815 2.049c-1.784.685-4.101 1.13-6.75 1.388-1.72.168-3.311.235-4.557.242h-.347a50.67 50.67 0 0 1-4.551-.242c-2.65-.259-4.967-.703-6.756-1.39a2.989 2.989 0 0 1-1.808-2.042C.275 16.61 0 14.225 0 11c0-.806.017-1.56.05-2.263l.046-.82C.212 6.196.426 4.81.707 3.73A2.99 2.99 0 0 1 2.522 1.68C4.274 1.008 6.543.567 9.139.306a50.988 50.988 0 0 1 4.61-.254Zm-.007 2h-.48l-.776.013c-1.081.028-2.334.099-3.648.23-2.435.246-4.547.656-6.096 1.251a.99.99 0 0 0-.6.683C2.255 5.72 2 7.939 2 11l.002.453c.004.447.013.874.028 1.284l.036.794c.1 1.796.306 3.197.58 4.245a.99.99 0 0 0 .593.676c1.583.608 3.742 1.022 6.228 1.265.99.097 1.939.159 2.793.194l.821.027.748.01h.336l.75-.01.824-.027a50.333 50.333 0 0 0 2.794-.194c2.486-.243 4.645-.657 6.223-1.263a.99.99 0 0 0 .6-.683C25.745 16.28 26 14.061 26 11c0-.612-.01-1.19-.03-1.737l-.036-.794c-.1-1.796-.306-3.197-.58-4.245a.99.99 0 0 0-.593-.676c-1.554-.597-3.666-1.007-6.1-1.252a49.814 49.814 0 0 0-3.645-.231l-.772-.014ZM11 7a1 1 0 0 1 1.555-.832l6 4a1 1 0 0 1 0 1.664l-6 4A1 1 0 0 1 11 15Zm2 1.869v4.262L16.197 11 13 8.869Z" fill="currentColor" fill-rule="nonzero"/></svg>
