<svg viewBox="0 0 22 22" xmlns="http://www.w3.org/2000/svg"><path d="M9.56.2a2.411 2.411 0 0 0-2.4 2.4c0 1.637.91 3.67 1.867 5.58-.748 2.344-1.598 4.856-2.684 6.975-2.225.873-4.208 1.521-5.4 2.482a.728.728 0 0 0-.053.06A2.411 2.411 0 0 0 2.6 21.8a2.38 2.38 0 0 0 1.71-.697.727.727 0 0 0 .045-.037c.878-1.048 1.913-2.95 2.835-4.688 2.125-.836 4.353-1.686 6.503-2.197 1.569 1.265 3.839 2.1 5.707 2.1a2.41 2.41 0 0 0 2.4-2.4c0-1.317-1.083-2.4-2.4-2.4-1.498 0-3.675.535-5.34 1.095a17.772 17.772 0 0 1-3.48-4.53c.637-1.961 1.38-3.923 1.38-5.445 0-1.317-1.083-2.4-2.4-2.4Zm0 1.44a.95.95 0 0 1 .96.96c0 .72-.386 2.047-.832 3.473C9.09 4.685 8.6 3.355 8.6 2.6a.95.95 0 0 1 .96-.96Zm.412 8.212a19.265 19.265 0 0 0 2.49 3.165c-1.423.39-2.813.888-4.184 1.41.662-1.495 1.192-3.046 1.694-4.575ZM19.4 12.92a.95.95 0 0 1 .96.96.95.95 0 0 1-.96.96c-1.081 0-2.619-.488-3.847-1.17 1.41-.399 2.95-.75 3.847-.75ZM5.075 17.218c-.675 1.204-1.346 2.329-1.815 2.895a.913.913 0 0 1-.66.247.95.95 0 0 1-.96-.96c0-.253.108-.505.255-.667.563-.436 1.788-.958 3.18-1.515Z" fill="currentColor" fill-rule="nonzero"/></svg>
