<?xml version="1.0" encoding="UTF-8"?>
<svg xmlns="http://www.w3.org/2000/svg" xmlns:xlink="http://www.w3.org/1999/xlink" width="0" height="0" style="display: none">
<symbol id="add" viewBox="0 0 24 24">
<path d="M19 13H13V19H11V13H5V11H11V5H13V11H19V13Z" fill="currentColor"/>
</symbol>

<symbol id="arrow_back" viewBox="0 0 24 24">
<path d="M20 11H7.83L13.42 5.41L12 4L4 12L12 20L13.41 18.59L7.83 13H20V11Z" fill="currentColor"/>
</symbol>

<svg id="filter_down" viewBox="0 0 24 24" xmlns="http://www.w3.org/2000/svg">
<path fill-rule="evenodd" clip-rule="evenodd" d="M3 7C3 6.44772 3.44772 6 4 6H20C20.5523 6 21 6.44772 21 7C21 7.55228 20.5523 8 20 8H4C3.44772 8 3 7.55228 3 7ZM6 12C6 11.4477 6.44772 11 7 11H17C17.5523 11 18 11.4477 18 12C18 12.5523 17.5523 13 17 13H7C6.44772 13 6 12.5523 6 12ZM9 17C9 16.4477 9.44772 16 10 16H14C14.5523 16 15 16.4477 15 17C15 17.5523 14.5523 18 14 18H10C9.44772 18 9 17.5523 9 17Z" fill="currentColor"/>
</svg>

<symbol id="arrow_forward" viewBox="0 0 24 24">
<path d="M12 4L10.59 5.41L16.17 11H4V13H16.17L10.59 18.59L12 20L20 12L12 4Z" fill="currentColor"/>
</symbol>

<symbol id="arrow-circle-left" color="white" viewBox="0 0 256 256"><rect fill="currentColor"/><path d="M128,24A104,104,0,1,0,232,128,104.12041,104.12041,0,0,0,128,24Zm40,112H107.3125l20.28125,20.28125a7.99915,7.99915,0,1,1-11.3125,11.3125L82.35352,133.666a8.02367,8.02367,0,0,1,0-11.332l33.92773-33.92773a7.99915,7.99915,0,0,1,11.3125,11.3125L107.3125,120H168a8,8,0,0,1,0,16Z"/></symbol>
<symbol id="arrow-drop-down" viewBox="0 0 10 5">
  <path d="M0 0L5 5L10 0H0Z"/>
</symbol>

<symbol id="arrow-drop-up" viewBox="0 0 10 5">
  <path d="M0 5L5 0L10 5H0Z"/>
</symbol>

<symbol id="calendar" viewBox="0 0 18 20"><path d="M16 2H15V0H13V2H5V0H3V2H2C0.89 2 0.00999999 2.9 0.00999999 4L0 18C0 19.1 0.89 20 2 20H16C17.1 20 18 19.1 18 18V4C18 2.9 17.1 2 16 2ZM16 18H2V8H16V18ZM16 6H2V4H16V6ZM9 11H14V16H9V11Z" fill="currentColor" /></symbol>

<symbol id="check" class="w-6 h-6 text-gray-800 dark:text-white" aria-hidden="true" fill="none" viewBox="0 0 16 12">
  <path stroke="currentColor" stroke-linecap="round" stroke-linejoin="round" stroke-width="2" d="M1 5.917 5.724 10.5 15 1.5"/>
</symbol>
<symbol id="checkbox" viewBox="0 0 24 24">
  <path d="M19 5v14H5V5Zm0-2H5c-1.1 0-2 .9-2 2v14c0 1.1.9 2 2 2h14c1.1 0 2-.9 2-2V5c0-1.1-.9-2-2-2Z"/>
</symbol>

<symbol id="checkbox_indeterminate" viewBox="0 96 960 960">
  <path
    d="M280 616h400v-80H280v80Zm-80 320q-33 0-56.5-23.5T120 856V296q0-33 23.5-56.5T200 216h560q33 0 56.5 23.5T840 296v560q0 33-23.5 56.5T760 936H200Z"/>
</symbol>

<symbol id="checkbox_selected" viewBox="0 0 24 24">
  <path d="M19 3H5a2 2 0 0 0-2 2v14a2 2 0 0 0 2 2h14a2 2 0 0 0 2-2V5a2 2 0 0 0-2-2Zm-9 14-5-5 1.41-1.41L10 14.17l7.59-7.59L19 8Z"/>
</symbol>

<symbol id="check-circle"  viewBox="0 0 48 48"><linearGradient x1="9.858" x2="38.142" y1="9.858" y2="38.142" gradientUnits="userSpaceOnUse"><stop offset="0" stop-color="#21ad64"/><stop offset="1" stop-color="#088242"/></linearGradient><path fill="url(#I9GV0SozQFknxHSR6DCx5a)" d="M44,24c0,11.045-8.955,20-20,20S4,35.045,4,24S12.955,4,24,4S44,12.955,44,24z"/><path d="M32.172,16.172L22,26.344l-5.172-5.172c-0.781-0.781-2.047-0.781-2.828,0l-1.414,1.414	c-0.781,0.781-0.781,2.047,0,2.828l8,8c0.781,0.781,2.047,0.781,2.828,0l13-13c0.781-0.781,0.781-2.047,0-2.828L35,16.172	C34.219,15.391,32.953,15.391,32.172,16.172z" opacity=".05"/><path d="M20.939,33.061l-8-8c-0.586-0.586-0.586-1.536,0-2.121l1.414-1.414c0.586-0.586,1.536-0.586,2.121,0	L22,27.051l10.525-10.525c0.586-0.586,1.536-0.586,2.121,0l1.414,1.414c0.586,0.586,0.586,1.536,0,2.121l-13,13	C22.475,33.646,21.525,33.646,20.939,33.061z" opacity=".07"/><path fill="#fff" d="M21.293,32.707l-8-8c-0.391-0.391-0.391-1.024,0-1.414l1.414-1.414c0.391-0.391,1.024-0.391,1.414,0	L22,27.758l10.879-10.879c0.391-0.391,1.024-0.391,1.414,0l1.414,1.414c0.391,0.391,0.391,1.024,0,1.414l-13,13	C22.317,33.098,21.683,33.098,21.293,32.707z"/></symbol>
<symbol id="chevron_down" class="w-6 h-6 text-gray-800 dark:text-white" aria-hidden="true" fill="none" viewBox="0 0 10 6">
    <path stroke="currentColor" stroke-linecap="round" stroke-linejoin="round" stroke-width="2" d="m1 1 4 4 4-4"/>
  </symbol>
<symbol id="chevron_down_solid" viewBox="0 0 512 512"><path d="M233.4 406.6c12.5 12.5 32.8 12.5 45.3 0l192-192c12.5-12.5 12.5-32.8 0-45.3s-32.8-12.5-45.3 0L256 338.7 86.6 169.4c-12.5-12.5-32.8-12.5-45.3 0s-12.5 32.8 0 45.3l192 192z"/></symbol>
<symbol id="chevron_expand" class="w-6 h-6 text-gray-800 dark:text-white" aria-hidden="true" fill="none" viewBox="0 0 10 16">
  <path stroke="currentColor" stroke-linecap="round" stroke-linejoin="round" stroke-width="2" d="M9 5 5 1 1 5m0 6 4 4 4-4"/>
</symbol>
<symbol id="clock" viewBox="0 0 20 20"><path d="M9.99 0C4.47 0 0 4.48 0 10C0 15.52 4.47 20 9.99 20C15.52 20 20 15.52 20 10C20 4.48 15.52 0 9.99 0ZM10 18C5.58 18 2 14.42 2 10C2 5.58 5.58 2 10 2C14.42 2 18 5.58 18 10C18 14.42 14.42 18 10 18ZM9.78 5H9.72C9.32 5 9 5.32 9 5.72V10.44C9 10.79 9.18 11.12 9.49 11.3L13.64 13.79C13.98 13.99 14.42 13.89 14.62 13.55C14.83 13.21 14.72 12.76 14.37 12.56L10.5 10.26V5.72C10.5 5.32 10.18 5 9.78 5Z" fill="currentColor" /></symbol>

<symbol id="close" color="black" viewBox="0 0 24 24"><path d="m19 6.353-1.41-1.398-5.59 5.54-5.59-5.54L5 6.353l5.59 5.54L5 17.432l1.41 1.397L12 13.29l5.59 5.54L19 17.432l-5.59-5.54L19 6.352Z" fill="black"/></symbol>

<symbol id="cog" viewBox="0 0 24 24">
  <path d="M19.432 12.98c.04-.32.07-.64.07-.98 0-.34-.03-.66-.07-.98l2.11-1.65c.19-.15.24-.42.12-.64l-2-3.46a.503.503 0 0 0-.61-.22l-2.49 1c-.52-.4-1.08-.73-1.69-.98l-.38-2.65a.488.488 0 0 0-.49-.42h-4c-.25 0-.46.18-.49.42l-.38 2.65c-.61.25-1.17.59-1.69.98l-2.49-1c-.23-.09-.49 0-.61.22l-2 3.46c-.13.22-.07.49.12.64l2.11 1.65c-.04.32-.07.65-.07.98 0 .33.03.66.07.98l-2.11 1.65c-.19.15-.24.42-.12.64l2 3.46c.12.22.39.3.61.22l2.49-1c.52.4 1.08.73 1.69.98l.38 2.65c.03.24.24.42.49.42h4c.25 0 .46-.18.49-.42l.38-2.65c.61-.25 1.17-.59 1.69-.98l2.49 1c.23.09.49 0 .61-.22l2-3.46c.12-.22.07-.49-.12-.64zm-7.43 2.52c-1.93 0-3.5-1.57-3.5-3.5s1.57-3.5 3.5-3.5 3.5 1.57 3.5 3.5-1.57 3.5-3.5 3.5z"/>
</symbol>

<symbol id="download_pdf" viewBox="0 0 22 22"><path d="M9.56.2a2.411 2.411 0 0 0-2.4 2.4c0 1.637.91 3.67 1.867 5.58-.748 2.344-1.598 4.856-2.684 6.975-2.225.873-4.208 1.521-5.4 2.482a.728.728 0 0 0-.053.06A2.411 2.411 0 0 0 2.6 21.8a2.38 2.38 0 0 0 1.71-.697.727.727 0 0 0 .045-.037c.878-1.048 1.913-2.95 2.835-4.688 2.125-.836 4.353-1.686 6.503-2.197 1.569 1.265 3.839 2.1 5.707 2.1a2.41 2.41 0 0 0 2.4-2.4c0-1.317-1.083-2.4-2.4-2.4-1.498 0-3.675.535-5.34 1.095a17.772 17.772 0 0 1-3.48-4.53c.637-1.961 1.38-3.923 1.38-5.445 0-1.317-1.083-2.4-2.4-2.4Zm0 1.44a.95.95 0 0 1 .96.96c0 .72-.386 2.047-.832 3.473C9.09 4.685 8.6 3.355 8.6 2.6a.95.95 0 0 1 .96-.96Zm.412 8.212a19.265 19.265 0 0 0 2.49 3.165c-1.423.39-2.813.888-4.184 1.41.662-1.495 1.192-3.046 1.694-4.575ZM19.4 12.92a.95.95 0 0 1 .96.96.95.95 0 0 1-.96.96c-1.081 0-2.619-.488-3.847-1.17 1.41-.399 2.95-.75 3.847-.75ZM5.075 17.218c-.675 1.204-1.346 2.329-1.815 2.895a.913.913 0 0 1-.66.247.95.95 0 0 1-.96-.96c0-.253.108-.505.255-.667.563-.436 1.788-.958 3.18-1.515Z" fill="currentColor" fill-rule="nonzero"/></symbol>

<symbol id="edit" viewBox="0 0 24 24">
<path d="M3 17.2501V21.0001H6.75L17.81 9.94006L14.06 6.19006L3 17.2501ZM20.71 7.04006C21.1 6.65006 21.1 6.02006 20.71 5.63006L18.37 3.29006C17.98 2.90006 17.35 2.90006 16.96 3.29006L15.13 5.12006L18.88 8.87006L20.71 7.04006Z" fill="currentColor"/>
</symbol>

<symbol id="enter"><path d="M89 13v66c0 2.2-1.8 4-4 4H32.9c-2.2 0-3.9-1.8-3.9-4V60.7c0-2.2 1.8-4 4-4s4 1.8 4 4V75h44V17H37v14.3c0 2.2-1.8 4-4 4s-4-1.8-4-4V13c0-2.2 1.7-4 3.9-4H85c2.2 0 4 1.8 4 4zM46.5 58.9c-1.6 1.6-1.5 4.1 0 5.7.8.8 1.8 1.2 2.8 1.2 1 0 2.1-.4 2.8-1.2l15.7-15.8c1.5-1.6 1.5-4.1 0-5.6l-15.6-16c-1.6-1.6-4.1-1.6-5.7 0-1.6 1.6-1.6 4.1 0 5.7l8.9 9L7 42c-2.2 0-4 1.8-4 4s1.8 4 4 4l48.4-.1-8.9 9z"/></symbol>
<symbol id="euro-currency" class="text-gray-800 dark:text-white" aria-hidden="true" fill="none" viewBox="-3 -3 24 24">
  <path stroke="currentColor" stroke-linecap="round" stroke-linejoin="round" stroke-width="2" d="M1 7h9.231M1 11h9.231M13 2.086A5.95 5.95 0 0 0 9.615 1C5.877 1 2.846 4.582 2.846 9s3.031 8 6.769 8A5.94 5.94 0 0 0 13 15.916"/>
</symbol>
<symbol id="eye_slash" viewBox="0 0 24 24" fill="currentColor"><path d="M0 0h24v24H0V0zm0 0h24v24H0V0zm0 0h24v24H0V0zm0 0h24v24H0V0z" fill="none"/><path d="M12 6c3.79 0 7.17 2.13 8.82 5.5-.59 1.22-1.42 2.27-2.41 3.12l1.41 1.41c1.39-1.23 2.49-2.77 3.18-4.53C21.27 7.11 17 4 12 4c-1.27 0-2.49.2-3.64.57l1.65 1.65C10.66 6.09 11.32 6 12 6zm-1.07 1.14L13 9.21c.57.25 1.03.71 1.28 1.28l2.07 2.07c.08-.34.14-.7.14-1.07C16.5 9.01 14.48 7 12 7c-.37 0-.72.05-1.07.14zM2.01 3.87l2.68 2.68C3.06 7.83 1.77 9.53 1 11.5 2.73 15.89 7 19 12 19c1.52 0 2.98-.29 4.32-.82l3.42 3.42 1.41-1.41L3.42 2.45 2.01 3.87zm7.5 7.5l2.61 2.61c-.04.01-.08.02-.12.02-1.38 0-2.5-1.12-2.5-2.5 0-.05.01-.08.01-.13zm-3.4-3.4l1.75 1.75c-.23.55-.36 1.15-.36 1.78 0 2.48 2.02 4.5 4.5 4.5.63 0 1.23-.13 1.77-.36l.98.98c-.88.24-1.8.38-2.75.38-3.79 0-7.17-2.13-8.82-5.5.7-1.43 1.72-2.61 2.93-3.53z"/></symbol>
<symbol id="facebook" viewBox="0 0 26 26"><path d="M13 0c7.18 0 13 5.82 13 13s-5.82 13-13 13S0 20.18 0 13 5.82 0 13 0Zm0 2C6.925 2 2 6.925 2 13c0 5.738 4.394 10.45 10 10.955V16H9a1 1 0 0 1-.117-1.993L9 14h3v-3a4 4 0 0 1 3.773-3.994L16 7h2a1 1 0 0 1 .117 1.993L18 9h-2a2 2 0 0 0-1.992 1.824L14 11v3h3a1 1 0 0 1 .117 1.993L17 16h-3v7.955c5.513-.497 9.852-5.06 9.996-10.667L24 13c0-6.075-4.925-11-11-11Z" fill="currentColor" fill-rule="nonzero"/></symbol>

<symbol id="fingerprint" viewBox="0 0 24 24">
  <path d="M17.81 4.47c-.08 0-.16-.02-.23-.06C15.66 3.42 14 3 12.01 3c-1.98 0-3.86.47-5.57 1.41-.24.13-.54.04-.68-.2a.506.506 0 0 1 .2-.68C7.82 2.52 9.86 2 12.01 2c2.13 0 3.99.47 6.03 1.52.25.13.34.43.21.67a.49.49 0 0 1-.44.28ZM3.5 9.72a.499.499 0 0 1-.41-.79c.99-1.4 2.25-2.5 3.75-3.27C9.98 4.04 14 4.03 17.15 5.65c1.5.77 2.76 1.86 3.75 3.25a.5.5 0 0 1-.12.7c-.23.16-.54.11-.7-.12a9.388 9.388 0 0 0-3.39-2.94c-2.87-1.47-6.54-1.47-9.4.01-1.36.7-2.5 1.7-3.4 2.96-.08.14-.23.21-.39.21Zm6.25 12.07a.47.47 0 0 1-.35-.15c-.87-.87-1.34-1.43-2.01-2.64-.69-1.23-1.05-2.73-1.05-4.34 0-2.97 2.54-5.39 5.66-5.39s5.66 2.42 5.66 5.39c0 .28-.22.5-.5.5s-.5-.22-.5-.5c0-2.42-2.09-4.39-4.66-4.39-2.57 0-4.66 1.97-4.66 4.39 0 1.44.32 2.77.93 3.85.64 1.15 1.08 1.64 1.85 2.42.19.2.19.51 0 .71-.11.1-.24.15-.37.15Zm7.17-1.85c-1.19 0-2.24-.3-3.1-.89-1.49-1.01-2.38-2.65-2.38-4.39 0-.28.22-.5.5-.5s.5.22.5.5c0 1.41.72 2.74 1.94 3.56.71.48 1.54.71 2.54.71.24 0 .64-.03 1.04-.1.27-.05.53.13.58.41.05.27-.13.53-.41.58-.57.11-1.07.12-1.21.12ZM14.91 22c-.04 0-.09-.01-.13-.02-1.59-.44-2.63-1.03-3.72-2.1a7.297 7.297 0 0 1-2.17-5.22c0-1.62 1.38-2.94 3.08-2.94 1.7 0 3.08 1.32 3.08 2.94 0 1.07.93 1.94 2.08 1.94s2.08-.87 2.08-1.94c0-3.77-3.25-6.83-7.25-6.83-2.84 0-5.44 1.58-6.61 4.03-.39.81-.59 1.76-.59 2.8 0 .78.07 2.01.67 3.61.1.26-.03.55-.29.64-.26.1-.55-.04-.64-.29a11.14 11.14 0 0 1-.73-3.96c0-1.2.23-2.29.68-3.24 1.33-2.79 4.28-4.6 7.51-4.6 4.55 0 8.25 3.51 8.25 7.83 0 1.62-1.38 2.94-3.08 2.94-1.7 0-3.08-1.32-3.08-2.94 0-1.07-.93-1.94-2.08-1.94s-2.08.87-2.08 1.94c0 1.71.66 3.31 1.87 4.51.95.94 1.86 1.46 3.27 1.85.27.07.42.35.35.61-.05.23-.26.38-.47.38Z" fill="currentColor"/>
</symbol>

<symbol id="grid_on" viewBox="0 0 24 24" fill="currentColor"><path d="M0 0h24v24H0V0z" fill="none"/><path d="M20 2H4c-1.1 0-2 .9-2 2v16c0 1.1.9 2 2 2h16c1.1 0 2-.9 2-2V4c0-1.1-.9-2-2-2zM8 20H4v-4h4v4zm0-6H4v-4h4v4zm0-6H4V4h4v4zm6 12h-4v-4h4v4zm0-6h-4v-4h4v4zm0-6h-4V4h4v4zm6 12h-4v-4h4v4zm0-6h-4v-4h4v4zm0-6h-4V4h4v4z"/></symbol>
<symbol id="headphones" class="text-gray-800 dark:text-white" aria-hidden="true" width="24" height="24" fill="currentColor" viewBox="-3 -3 24 24">
  <path d="M10 0A10.011 10.011 0 0 0 0 10v5a3 3 0 0 0 3 3h3a1 1 0 0 0 1-1v-7a1 1 0 0 0-1-1H3c-.326.004-.65.062-.957.171a8 8 0 0 1 15.914 0A2.954 2.954 0 0 0 17 9h-3a1 1 0 0 0-1 1v7a1 1 0 0 0 1 1h3a3 3 0 0 0 3-3v-5A10.011 10.011 0 0 0 10 0Z"/>
</symbol>

<symbol id="websession" viewBox="0 -960 960 960"><path d="M320-120v-40l80-80H160q-33 0-56.5-23.5T80-320v-440q0-33 23.5-56.5T160-840h640q33 0 56.5 23.5T880-760v440q0 33-23.5 56.5T800-240H560l80 80v40H320ZM160-440h640v-320H160v320Zm0 0v-320 320Z" fill="currentColor"/></symbol>

<symbol id="info" viewBox="0 0 24 24" fill="currentColor"><path d="M0 0h24v24H0V0z" fill="none"/><path d="M11 7h2v2h-2zm0 4h2v6h-2zm1-9C6.48 2 2 6.48 2 12s4.48 10 10 10 10-4.48 10-10S17.52 2 12 2zm0 18c-4.41 0-8-3.59-8-8s3.59-8 8-8 8 3.59 8 8-3.59 8-8 8z"/></symbol>

<symbol id="info_filled" viewBox="0 0 24 24"><path d="M0 0h24v24H0z" fill="none"/><path d="M12 2C6.48 2 2 6.48 2 12s4.48 10 10 10 10-4.48 10-10S17.52 2 12 2zm1 15h-2v-6h2v6zm0-8h-2V7h2v2z"/></symbol>

<symbol id="insert_link" viewBox="0 0 21 10">
  <path d="M1.9602 4.38C2.2402 2.91 3.6202 1.9 5.1202 1.9H8.0502C8.5702 1.9 9.0002 1.47 9.0002 0.95C9.0002 0.43 8.5702 0 8.0502 0H5.2202C2.6102 0 0.280197 1.91 0.0301974 4.51C-0.259803 7.49 2.0802 10 5.0002 10H8.0502C8.5702 10 9.0002 9.57 9.0002 9.05C9.0002 8.53 8.5702 8.1 8.0502 8.1H5.0002C3.0902 8.1 1.5802 6.36 1.9602 4.38ZM7.0002 6H13.0002C13.5502 6 14.0002 5.55 14.0002 5C14.0002 4.45 13.5502 4 13.0002 4H7.0002C6.4502 4 6.0002 4.45 6.0002 5C6.0002 5.55 6.4502 6 7.0002 6ZM14.7802 0H11.9502C11.4302 0 11.0002 0.43 11.0002 0.95C11.0002 1.47 11.4302 1.9 11.9502 1.9H14.8802C16.3802 1.9 17.7602 2.91 18.0402 4.38C18.4202 6.36 16.9102 8.1 15.0002 8.1H11.9502C11.4302 8.1 11.0002 8.53 11.0002 9.05C11.0002 9.57 11.4302 10 11.9502 10H15.0002C17.9202 10 20.2602 7.49 19.9802 4.51C19.7302 1.91 17.3902 0 14.7802 0Z" />
</symbol>

<symbol id="instagram" viewBox="0 0 26 26"><path d="M18.5.5a7 7 0 0 1 7 7v11a7 7 0 0 1-7 7h-11a7 7 0 0 1-7-7v-11a7 7 0 0 1 7-7Zm0 2h-11a5 5 0 0 0-5 5v11a5 5 0 0 0 5 5h11a5 5 0 0 0 5-5v-11a5 5 0 0 0-5-5ZM13 7a6 6 0 1 1 0 12 6 6 0 0 1 0-12Zm0 2a4 4 0 1 0 0 8 4 4 0 0 0 0-8Zm6.5-4a1.5 1.5 0 1 1 0 3 1.5 1.5 0 0 1 0-3Z" fill="currentColor" fill-rule="nonzero"/></symbol>

<symbol id="keyboard_arrow_down" viewBox="0 0 24 24"><path d="M7.41 8.59 12 13.17l4.59-4.58L18 10l-6 6-6-6 1.41-1.41Z" fill="currentColor"/></symbol>

<symbol id="language"  viewBox="0 0 24 24">
  <path d="M11.99 2C6.47 2 2 6.48 2 12s4.47 10 9.99 10C17.52 22 22 17.52 22 12S17.52 2 11.99 2Zm6.93 6h-2.95a15.65 15.65 0 0 0-1.38-3.56A8.03 8.03 0 0 1 18.92 8ZM12 4.04c.83 1.2 1.48 2.53 1.91 3.96h-3.82c.43-1.43 1.08-2.76 1.91-3.96ZM4.26 14C4.1 13.36 4 12.69 4 12s.1-1.36.26-2h3.38c-.08.66-.14 1.32-.14 2 0 .68.06 1.34.14 2zm.82 2h2.95c.32 1.25.78 2.45 1.38 3.56A7.987 7.987 0 0 1 5.08 16zm2.95-8H5.08a7.987 7.987 0 0 1 4.33-3.56A15.65 15.65 0 0 0 8.03 8zM12 19.96c-.83-1.2-1.48-2.53-1.91-3.96h3.82c-.43 1.43-1.08 2.76-1.91 3.96ZM14.34 14H9.66c-.09-.66-.16-1.32-.16-2 0-.68.07-1.35.16-2h4.68c.09.65.16 1.32.16 2 0 .68-.07 1.34-.16 2zm.25 5.56c.6-1.11 1.06-2.31 1.38-3.56h2.95a8.03 8.03 0 0 1-4.33 3.56zM16.36 14c.08-.66.14-1.32.14-2 0-.68-.06-1.34-.14-2h3.38c.16.64.26 1.31.26 2s-.1 1.36-.26 2z" fill="currentColor"/>
</symbol>

<symbol id="language_trans" viewBox="0 0 22 20">
  <path d="M11.87 13.07L9.33 10.56L9.36 10.53C11.1 8.59 12.34 6.36 13.07 4H16V2H9V0H7V2H0V3.99H11.17C10.5 5.92 9.44 7.75 8 9.35C7.07 8.32 6.3 7.19 5.69 6H3.69C4.42 7.63 5.42 9.17 6.67 10.56L1.58 15.58L3 17L8 12L11.11 15.11L11.87 13.07ZM17.5 8H15.5L11 20H13L14.12 17H18.87L20 20H22L17.5 8ZM14.88 15L16.5 10.67L18.12 15H14.88Z"/>
</symbol>

<symbol id="linkedin" viewBox="0 0 26 26">
  <path d="M22 0a2 2 0 0 1 2 2v20a2 2 0 0 1-2 2H2a2 2 0 0 1-2-2V2a2 2 0 0 1 2-2Zm0 2H2v20h20V2Zm-7.5 7a4.5 4.5 0 0 1 4.494 4.262L19 13.5V18a1 1 0 0 1-1.993.117L17 18v-4.5a2.5 2.5 0 1 0-5 0V18a1 1 0 0 1-1.993.117L10 18v-8a1 1 0 0 1 1.975-.223A4.489 4.489 0 0 1 14.5 9ZM7 9a1 1 0 0 1 .993.883L8 10v8a1 1 0 0 1-1.993.117L6 18v-8a1 1 0 0 1 1-1Zm0-4.5a1.5 1.5 0 1 1 0 3 1.5 1.5 0 0 1 0-3Z" fill="currentColor" fill-rule="nonzero"/>
</symbol>

<symbol id="list" viewBox="0 0 24 24" fill="currentColor"><g fill="none"><path d="M0 0h24v24H0V0z"/><path d="M0 0h24v24H0V0z" opacity=".87"/></g><path d="M3 13h2v-2H3v2zm0 4h2v-2H3v2zm0-8h2V7H3v2zm4 4h14v-2H7v2zm0 4h14v-2H7v2zM7 7v2h14V7H7zm-4 6h2v-2H3v2zm0 4h2v-2H3v2zm0-8h2V7H3v2zm4 4h14v-2H7v2zm0 4h14v-2H7v2zM7 7v2h14V7H7z"/></symbol>
<symbol id="loading" viewBox="0 0 24 24">
  <path d="M3 12a9 9 0 1 0 9-9 1 1 0 1 0 0 2 7 7 0 1 1-7 7 1 1 0 1 0-2 0z"/>
</symbol>

<symbol id="location_on" viewBox="0 -960 960 960"><path d="M480-480q33 0 56.5-23.5T560-560q0-33-23.5-56.5T480-640q-33 0-56.5 23.5T400-560q0 33 23.5 56.5T480-480Zm0 294q122-112 181-203.5T720-552q0-109-69.5-178.5T480-800q-101 0-170.5 69.5T240-552q0 71 59 162.5T480-186Zm0 106Q319-217 239.5-334.5T160-552q0-150 96.5-239T480-880q127 0 223.5 89T800-552q0 100-79.5 217.5T480-80Zm0-480Z" fill="currentColor"/></symbol>

<symbol id="more_horiz" viewBox="0 0 24 24">
  <path d="M6 10c-1.1 0-2 .9-2 2s.9 2 2 2 2-.9 2-2-.9-2-2-2zm12 0c-1.1 0-2 .9-2 2s.9 2 2 2 2-.9 2-2-.9-2-2-2zm-6 0c-1.1 0-2 .9-2 2s.9 2 2 2 2-.9 2-2-.9-2-2-2z"/>
</symbol>

<symbol id="ok_ru" viewBox="0 0 18 24"><path d="M17.473 9.204a1 1 0 0 1 .434 1.345 10.001 10.001 0 0 1-7.58 5.363l6.38 6.38a1 1 0 0 1-1.32 1.498l-.094-.083L9 17.414l-6.293 6.293a1 1 0 0 1-1.32.083l-.094-.083a1 1 0 0 1-.083-1.32l.083-.094 6.38-6.38a10.001 10.001 0 0 1-7.58-5.364 1 1 0 0 1 1.78-.91A7.998 7.998 0 0 0 9 13.998a7.998 7.998 0 0 0 7.127-4.36 1 1 0 0 1 1.346-.435ZM9 0a6 6 0 1 1 0 12A6 6 0 0 1 9 0Zm0 2a4 4 0 1 0 0 8 4 4 0 0 0 0-8Z" fill="currentColor" fill-rule="nonzero"/></symbol>

<symbol id="ondemand_video" viewBox="0 0 24 24">
  <path
    d="M9 7V15L16 11L9 7ZM21 3H3C1.9 3 1 3.9 1 5V17C1 18.1 1.9 19 3 19H8V21H16V19H21C22.1 19 23 18.1 23 17V5C23 3.9 22.1 3 21 3ZM21 17H3V5H21V17Z"
    fill="currentColor" fill-rule="nonzero"/>
</symbol>

<symbol id="person_pin_circle" viewBox="0 0 24 24">
  <path
    d="M12 11C13.33 11 16 11.67 16 13V13.16C15.03 14.28 13.6 15 12 15C10.4 15 8.97 14.28 8 13.16V13C8 11.67 10.67 11 12 11ZM12 10C10.9 10 10 9.1 10 8C10 6.9 10.9 6 12 6C13.1 6 14 6.9 14 8C14 9.1 13.1 10 12 10ZM18 10.2C18 6.57 15.35 4 12 4C8.65 4 6 6.57 6 10.2C6 12.54 7.95 15.64 12 19.34C16.05 15.64 18 12.54 18 10.2ZM12 2C16.2 2 20 5.22 20 10.2C20 13.52 17.33 17.45 12 22C6.67 17.45 4 13.52 4 10.2C4 5.22 7.8 2 12 2Z"
    fill="currentColor" fill-rule="nonzero"/>
</symbol>

<symbol id="play_arrow" viewBox="0 0 24 24"><path d="M7 5v14l11-7L7 5Z" fill="currentColor"/></symbol>

<symbol id="premium" viewBox="0 0 30 25"><path d="M.875 9.188a1.006 1.006 0 0 1 .247-.659l-.065.083c.018-.025.036-.05.056-.073l.01-.01 6.562-7.5a1 1 0 0 1 .753-.341h13.124a1 1 0 0 1 .753.341l6.563 7.5a1.015 1.015 0 0 1 .23.48.997.997 0 0 1-.049.535l-.008.023a.969.969 0 0 1-.195.303l.068-.081c-.015.02-.03.039-.047.058l-.02.023-13.1 14.038a.976.976 0 0 1-.525.315l-.022.005a.773.773 0 0 1-.126.018.967.967 0 0 1-.294-.017.97.97 0 0 1-.552-.326L1.145 9.87a1.014 1.014 0 0 1-.24-.44.99.99 0 0 1-.029-.226v-.017Zm18.388 1h-8.527L15 20.608l4.263-10.42Zm6.56 0h-4.399l-3.433 8.391 7.832-8.392Zm-17.248 0h-4.4l7.833 8.39-3.433-8.39Zm4.397-7.5H8.891l-4.814 5.5h4.676l4.219-5.5ZM15 3.329l-3.727 4.859h7.453L15 3.329Zm6.108-.642h-4.081l4.219 5.5h4.675l-4.813-5.5Z" fill="currentColor" fill-rule="nonzero"/></symbol>

<symbol id="qzone" viewBox="0 0 28 28"><path d="m13.748.934.45.003c.193.147.31.351.428.558 1.338 2.367 2.675 4.734 4.012 7.104.122.217.268.311.504.355 2.769.517 5.537 1.04 8.305 1.571.52.1.677.6.32.995l-6.057 6.672c-.175.193-.388.23-.626.247-1.593.121-3.178.1-4.737-.305a6.85 6.85 0 0 1-.788-.269c-.567-.226-.639-.71-.168-1.092l4.51-3.643c.057-.046.113-.096.173-.148-2.253-1.02-6.55-.965-9.061-.103 1.27.066 2.521.208 3.747.526.425.11.83.266 1.173.556.383.325.387.695.004 1.018l-5.748 4.834c-.078.065-.154.132-.25.216.632.275 1.3.456 1.984.537 2.313.311 4.578-.014 6.827-.536 1.68-.39 3.319-.921 4.93-1.534.204-.077.408-.134.617-.022.248.131.358.392.274.696-.326 1.187-.886 2.205-2.011 2.804-.15.079-.106.18-.087.282.19.983.383 1.964.578 2.945.137.688.278 1.374.412 2.063.048.244.011.47-.2.633-.21.162-.427.141-.656.04l-8.345-3.695a.583.583 0 0 0-.542 0C11.149 25.46 8.575 26.676 6 27.888c-.188.088-.375.17-.587.101a.535.535 0 0 1-.378-.588c.05-.579.123-1.156.19-1.733a15587.904 15587.904 0 0 0 .792-6.76.962.962 0 0 1 .021-.17c.164-.523-.068-.873-.42-1.252C3.806 15.53 2.023 13.546.23 11.57L0 11.313v-.452c.092-.273.299-.384.565-.434L6.412 9.32l2.39-.45a.603.603 0 0 0 .448-.331c1.138-2.027 2.29-4.048 3.433-6.072.23-.408.468-.812.69-1.225a.596.596 0 0 1 .375-.308Zm.221 3.04L12.44 6.672l-1.81 3.205c-.242.431-.584.7-1.073.754l-.186.04-6.45 1.217 1.142 1.26 1.707 1.877 1.796 1.968a1.511 1.511 0 0 1 .335 1.173l-.855 7.249 1.604-.752 4.635-2.187-.103-.001a13.788 13.788 0 0 1-1.576-.137l-.387-.063c-1.134-.202-2.043-.523-2.84-1.062-.842-.568-.885-1.475-.107-2.127l4.961-4.172-.257-.04c-.143-.02-.296-.04-.464-.061l-.262-.03-.564-.059-.286-.025-.59-.043-.306-.019-.647-.031-.701-.026-.902-.023a1.168 1.168 0 0 1-.607-.23 1.15 1.15 0 0 1-.422-.612c-.161-.511-.004-1.032.44-1.35.199-.142.408-.27.622-.382 1.606-.846 3.388-1.29 5.565-1.477 1.48-.13 2.877-.098 4.222.113 1.323.206 2.496.53 3.579 1.012.954.425 1.082 1.509.273 2.163l-3.547 2.864.315.024c.535.032 1.096.03 1.693 0l.296-.02 1.612-1.772 2.72-2.998-3.253-.62-3.029-.556c-.754-.134-1.259-.508-1.638-1.192l-.804-1.45-2.322-4.098Zm6.723 17.362-.504.141c-.905.245-1.775.445-2.637.603a24.69 24.69 0 0 1-2.718.358l-.218.012 3.135 1.388 3.525 1.552-.626-3.185c-.068-.344-.06-.617.034-.848l.009-.021Z" fill="currentColor" fill-rule="nonzero"/></symbol>

<symbol id="remove_red_eye" viewBox="0 0 22 16">
  <path d="M11 0.5C6 0.5 1.73 3.61 0 8C1.73 12.39 6 15.5 11 15.5C16 15.5 20.27 12.39 22 8C20.27 3.61 16 0.5 11 0.5ZM11 13C8.24 13 6 10.76 6 8C6 5.24 8.24 3 11 3C13.76 3 16 5.24 16 8C16 10.76 13.76 13 11 13ZM11 5C9.34 5 8 6.34 8 8C8 9.66 9.34 11 11 11C12.66 11 14 9.66 14 8C14 6.34 12.66 5 11 5Z"/>
</symbol>

<symbol id="renren" viewBox="0 0 26 26"><path d="M13 0c7.18 0 13 5.82 13 13s-5.82 13-13 13S0 20.18 0 13 5.82 0 13 0Zm0 14.763-.134.325c-.626 1.473-1.493 2.955-2.554 4.433a32.154 32.154 0 0 1-2.483 3.04l-.094.1A10.95 10.95 0 0 0 13 24c1.907 0 3.7-.485 5.265-1.34l-.094-.099a32.154 32.154 0 0 1-2.483-3.04c-1.14-1.587-2.055-3.179-2.689-4.758Zm1-4.739V10c0 2.593 1.236 5.462 3.312 8.354a30.173 30.173 0 0 0 2.634 3.176A10.98 10.98 0 0 0 24 13c0-5.738-4.393-10.45-10-10.955v7.979Zm-2-7.98C6.392 2.55 2 7.263 2 13c0 3.44 1.58 6.513 4.054 8.53l-.095.099a30.173 30.173 0 0 0 2.728-3.275c1.99-2.772 3.209-5.522 3.307-8.028l.005-.302Z" fill="currentColor" fill-rule="nonzero"/></symbol>

<symbol id="search" fill="currentColor"  viewBox="0 0 24 24">    <path d="M 9 2 C 5.1458514 2 2 5.1458514 2 9 C 2 12.854149 5.1458514 16 9 16 C 10.747998 16 12.345009 15.348024 13.574219 14.28125 L 14 14.707031 L 14 16 L 20 22 L 22 20 L 16 14 L 14.707031 14 L 14.28125 13.574219 C 15.348024 12.345009 16 10.747998 16 9 C 16 5.1458514 12.854149 2 9 2 z M 9 4 C 11.773268 4 14 6.2267316 14 9 C 14 11.773268 11.773268 14 9 14 C 6.2267316 14 4 11.773268 4 9 C 4 6.2267316 6.2267316 4 9 4 z"/></symbol>
<symbol id="share" viewBox="0 0 24 24">
<path d="M18 16.08C17.24 16.08 16.56 16.38 16.04 16.85L8.91 12.7C8.96 12.47 9 12.24 9 12C9 11.76 8.96 11.53 8.91 11.3L15.96 7.19C16.5 7.69 17.21 8 18 8C19.66 8 21 6.66 21 5C21 3.34 19.66 2 18 2C16.34 2 15 3.34 15 5C15 5.24 15.04 5.47 15.09 5.7L8.04 9.81C7.5 9.31 6.79 9 6 9C4.34 9 3 10.34 3 12C3 13.66 4.34 15 6 15C6.79 15 7.5 14.69 8.04 14.19L15.16 18.35C15.11 18.56 15.08 18.78 15.08 19C15.08 20.61 16.39 21.92 18 21.92C19.61 21.92 20.92 20.61 20.92 19C20.92 17.39 19.61 16.08 18 16.08Z" fill="currentColor"/>
</symbol>

<symbol id="slow_motion_video" viewBox="0 0 24 24" fill="currentColor"><path d="M0 0h24v24H0V0z" fill="none"/><path d="M13.05 9.79L10 7.5v9l3.05-2.29L16 12l-2.95-2.21zm0 0L10 7.5v9l3.05-2.29L16 12l-2.95-2.21zm0 0L10 7.5v9l3.05-2.29L16 12l-2.95-2.21zM11 4.07V2.05c-2.01.2-3.84 1-5.32 2.21L7.1 5.69c1.11-.86 2.44-1.44 3.9-1.62zM5.69 7.1L4.26 5.68C3.05 7.16 2.25 8.99 2.05 11h2.02c.18-1.46.76-2.79 1.62-3.9zM4.07 13H2.05c.2 2.01 1 3.84 2.21 5.32l1.43-1.43c-.86-1.1-1.44-2.43-1.62-3.89zm1.61 6.74C7.16 20.95 9 21.75 11 21.95v-2.02c-1.46-.18-2.79-.76-3.9-1.62l-1.42 1.43zM22 12c0 5.16-3.92 9.42-8.95 9.95v-2.02C16.97 19.41 20 16.05 20 12s-3.03-7.41-6.95-7.93V2.05C18.08 2.58 22 6.84 22 12z"/></symbol>
<symbol id="snapchat" viewBox="0 0 30 28"><path d="M15 0a8 8 0 0 1 8 8c0 1.436.128 2.76.37 3.976l2.259-.904a1 1 0 0 1 .848 1.807l-.106.05-2.49.996a13.53 13.53 0 0 0 1.92 3.758 11.37 11.37 0 0 0 2.048 2.157c.476.382.892.649 1.198.808l.166.088a1 1 0 0 1 .156 1.578c-.72.676-1.537.878-3.033.984l-.783.056-.206.019-.359.043c-.381.055-.639.13-.838.24-.235.129-.456.338-.786.753l-.213.275-.645.87c-.834 1.092-1.377 1.559-2.286 1.792-.842.215-1.474.102-2.614-.386l-.484-.215-.806-.369C15.713 26.113 15.323 26 15 26c-.372 0-.822.146-1.598.503l-.514.238c-1.366.631-2.162.847-3.108.605-.966-.248-1.588-.839-2.475-2.042l-.331-.453-.24-.317-.21-.264c-.266-.317-.471-.503-.674-.614-.313-.173-.77-.258-1.624-.32l-.565-.038c-1.493-.106-2.31-.308-3.03-.984a1 1 0 0 1 .265-1.636l.064-.032.17-.094c.034-.019.069-.04.106-.063l.246-.158c.09-.06.187-.128.291-.203a10.937 10.937 0 0 0 2.104-2.026c.945-1.178 1.708-2.564 2.243-4.176l-2.491-.998a1 1 0 0 1 .632-1.894l.11.038 2.26.904A20.44 20.44 0 0 0 7 8a8 8 0 0 1 8-8Zm0 2a6 6 0 0 0-6 6c0 4.82-1.332 8.57-3.562 11.353a13.97 13.97 0 0 1-1.658 1.75l-.213.181 1.073.079c.973.082 1.582.214 2.175.54.64.353 1.092.842 1.772 1.765l.459.624c.543.717.89 1.029 1.23 1.116.244.063.558.014 1.065-.179l.327-.133.38-.17.515-.239C13.593 24.214 14.252 24 15 24c.726 0 1.384.208 2.353.649l.562.26.38.17.325.133.276.101c.38.127.619.149.828.095.25-.064.484-.23.81-.6l.207-.246c.037-.045.074-.093.113-.143l.25-.328.352-.48.3-.395c.52-.665.894-1.017 1.43-1.312.646-.357 1.312-.482 2.451-.563l.56-.038.24-.019-.238-.204a13.505 13.505 0 0 1-1.764-1.887l-.247-.328C22.178 16.123 21 12.527 21 8a6 6 0 0 0-6-6Z" fill="currentColor" fill-rule="nonzero"/></symbol>

<symbol id="star" enable-background="new 0 0 24 24" viewBox="0 0 24 24" fill="currentColor"><g><path d="M0,0h24v24H0V0z" fill="none"/><path d="M0,0h24v24H0V0z" fill="none"/></g><g><path d="M12,17.27L18.18,21l-1.64-7.03L22,9.24l-7.19-0.61L12,2L9.19,8.63L2,9.24l5.46,4.73L5.82,21L12,17.27z"/></g></symbol>
<symbol id="star_border" viewBox="0 0 24 24" fill="currentColor"><path d="M0 0h24v24H0V0z" fill="none"/><path d="M22 9.24l-7.19-.62L12 2 9.19 8.63 2 9.24l5.46 4.73L5.82 21 12 17.27 18.18 21l-1.63-7.03L22 9.24zM12 15.4l-3.76 2.27 1-4.28-3.32-2.88 4.38-.38L12 6.1l1.71 4.04 4.38.38-3.32 2.88 1 4.28L12 15.4z"/></symbol>
<symbol id="sync" viewBox="0 0 24 24">
  <path d="m18.65 8.35-2.79 2.79c-.32.32-.1.86.35.86H18c0 3.31-2.69 6-6 6-.79 0-1.56-.15-2.25-.44-.36-.15-.77-.04-1.04.23-.51.51-.33 1.37.34 1.64.91.37 1.91.57 2.95.57 4.42 0 8-3.58 8-8h1.79c.45 0 .67-.54.35-.85l-2.79-2.79c-.19-.2-.51-.2-.7-.01zM6 12c0-3.31 2.69-6 6-6 .79 0 1.56.15 2.25.44.36.15.77.04 1.04-.23.51-.51.33-1.37-.34-1.64C14.04 4.2 13.04 4 12 4c-4.42 0-8 3.58-8 8H2.21c-.45 0-.67.54-.35.85l2.79 2.79c.2.2.51.2.71 0l2.79-2.79a.5.5 0 0 0-.36-.85z"/>
</symbol>

<symbol id="restart" xmlns="http://www.w3.org/2000/svg" x="1px" y="1px" viewBox="0 0 48 48">
  <path d="M 24 6 C 23.211034 6 22.462241 6.065646 21.751953 6.1542969 A 2.0002 2.0002 0 1 0 22.248047 10.123047 C 22.851759 10.047698 23.430966 10 24 10 C 31.756241 10 38 16.243759 38 24 C 38 31.756241 31.756241 38 24 38 C 16.243759 38 10 31.756241 10 24 C 10 21.364943 10.738832 18.918741 12 16.822266 L 12 17 A 2.0002 2.0002 0 1 0 16 17 L 16 11.511719 L 16 11 A 2.0002 2.0002 0 0 0 14 9 L 8 9 A 2.0002 2.0002 0 1 0 8 13 L 9.7695312 13 C 7.4118008 16.043907 6 19.861583 6 24 C 6 33.917759 14.082241 42 24 42 C 33.917759 42 42 33.917759 42 24 C 42 14.082241 33.917759 6 24 6 z" fill="currentColor"></path>
</symbol>

<symbol id="tudou" viewBox="0 0 26 26"><path d="M13 0c7.18 0 13 5.82 13 13s-5.82 13-13 13S0 20.18 0 13 5.82 0 13 0Zm0 2C6.925 2 2 6.925 2 13s4.925 11 11 11 11-4.925 11-11S19.075 2 13 2ZM7 15a1 1 0 1 1 0 2 1 1 0 0 1 0-2Zm2 0a1 1 0 1 1 0 2 1 1 0 0 1 0-2Zm-2-2a1 1 0 1 1 0 2 1 1 0 0 1 0-2Zm2 0a1 1 0 1 1 0 2 1 1 0 0 1 0-2Zm-.5-5a3.5 3.5 0 0 1 3.5 3.5 12.74 12.74 0 0 0-2.708-.466l-.044.116c-.026.074-.05.152-.073.238l-.094.387-.112.475-.009.03a1 1 0 0 1-1.92-.56l.001-.014.09-.381.062-.248A12.74 12.74 0 0 0 5 11.5 3.5 3.5 0 0 1 8.5 8Zm9 0a3.5 3.5 0 0 1 3.5 3.5 12.74 12.74 0 0 0-7 0A3.5 3.5 0 0 1 17.5 8Z" fill="currentColor" fill-rule="nonzero"/></symbol>

<symbol id="twitter" viewBox="0 0 27 23"><path d="M15.775.127a6 6 0 0 0-3.43 2.089l-.17.217A6 6 0 0 0 11 6l-.001.76-.061-.016c-1.754-.477-3.426-1.332-4.99-2.467A19.331 19.331 0 0 1 3.593 2.26l-.172-.176-.309-.329-.28-.317-.051-.063a1 1 0 0 0-1.765.446l-.07.4c-1.18 7.166 1.41 11.686 5.4 14.053l.298.171-.07.093c-.434.546-1.096 1.041-1.943 1.474-.617.316-1.287.575-1.957.778l-.32.093-.377.098-.173.038a1 1 0 0 0-.511 1.688c.322.322.907.761 1.76 1.187C4.438 22.587 6.09 23 8 23l.337-.003c8.502-.163 14.357-6.496 14.651-14.372l.006-.205 3.713-3.713.076-.084C27.297 3.986 26.853 3 26 3l-3.805-.001-.074-.128A6 6 0 0 0 20.017.813L19.754.67a6 6 0 0 0-3.98-.542Zm3.062 2.32a4 4 0 0 1 1.83 1.953l.06.117a1 1 0 0 0 .857.483l2.001-.001-2.292 2.294A1 1 0 0 0 21 8c0 7.206-5.243 13-13 13l-.363-.006c-1.194-.04-2.246-.273-3.159-.647l-.089-.039.255-.1c.304-.127.604-.265.898-.415 1.692-.865 2.913-1.995 3.407-3.477a1 1 0 0 0-.494-1.206l-.311-.138a6.822 6.822 0 0 1-.084-.04l-.336-.174c-3.193-1.73-5.41-5.004-5.02-10.405l.012-.159.132.125c.585.539 1.228 1.07 1.925 1.577 2.158 1.566 4.524 2.667 7.063 3.09A1 1 0 0 0 13 8V6a4 4 0 0 1 5.611-3.662l.226.108Z" fill="currentColor" fill-rule="nonzero"/></symbol>

<symbol id="users" fill="currentColor" viewBox="0 0 20 18">
    <path d="M14 2a3.963 3.963 0 0 0-1.4.267 6.439 6.439 0 0 1-1.331 6.638A4 4 0 1 0 14 2Zm1 9h-1.264A6.957 6.957 0 0 1 15 15v2a2.97 2.97 0 0 1-.184 1H19a1 1 0 0 0 1-1v-1a5.006 5.006 0 0 0-5-5ZM6.5 9a4.5 4.5 0 1 0 0-9 4.5 4.5 0 0 0 0 9ZM8 10H5a5.006 5.006 0 0 0-5 5v2a1 1 0 0 0 1 1h11a1 1 0 0 0 1-1v-2a5.006 5.006 0 0 0-5-5Z"/>
 </symbol>
<symbol id="vkontakte" viewBox="0 0 26 26"><path d="M18.5.5a7 7 0 0 1 7 7v11a7 7 0 0 1-7 7h-11a7 7 0 0 1-7-7v-11a7 7 0 0 1 7-7Zm0 2h-11a5 5 0 0 0-5 5v11a5 5 0 0 0 5 5h11a5 5 0 0 0 5-5v-11a5 5 0 0 0-5-5Zm-4.5 5v5.743l6.345-5.499a1 1 0 0 1 1.4 1.424l-.09.088-5.336 4.622 5.314 4.348a1 1 0 0 1-1.164 1.621l-.102-.073-5.5-4.5-.076-.071-.636.553c-.049.042-.1.078-.154.11L14 19.5a1 1 0 0 1-1.25.969 1.01 1.01 0 0 1-.25.031c-3.782 0-6.213-2.377-7.509-6.177-.436-1.278-.713-2.636-.867-3.991a20.488 20.488 0 0 1-.108-1.31L4 8.57 4 8.5a1 1 0 1 1 2 0l.013.424c.018.355.049.753.098 1.182.139 1.222.388 2.443.773 3.571.984 2.887 2.62 4.604 5.116 4.803V9.5h-1.5a1 1 0 0 1-.993-.883L9.5 8.5a1 1 0 0 1 .883-.993L10.5 7.5H14Z" fill="currentColor" fill-rule="nonzero"/></symbol>

<symbol id="warning" viewBox="0 0 24 24">
<path d="M1 21H23L12 2L1 21ZM13 18H11V16H13V18ZM13 14H11V10H13V14Z" fill="currentColor"/>
</symbol>

<symbol id="wechat" viewBox="0 0 28 25"><path d="M12 0c3.23 0 6.192.965 8.372 2.573C22.552 4.181 24 6.483 24 9.118c0 .664-.092 1.306-.265 1.922l.117.056c.503.25.974.538 1.405.861C26.894 13.185 28 14.957 28 17c0 1.263-.426 2.433-1.143 3.43l.017.099c.046.23.13.504.231.842l.043.142c.109.361.242.813.292 1.216.025.202.039.462-.017.727-.06.28-.214.636-.58.878-.335.222-.698.239-.916.23a3.233 3.233 0 0 1-.686-.117c-.416-.111-.89-.294-1.303-.457l-.098-.038-.15-.059-1.455-.356c-1.007.3-2.098.463-3.235.463-2.405 0-4.62-.73-6.257-1.957-1.349-1.012-2.337-2.394-2.643-3.991l.014.071a14.968 14.968 0 0 1-2.551-.527l-2.128.512a358.115 358.115 0 0 0-.366.14c-.574.222-1.204.461-1.751.605a4.125 4.125 0 0 1-.86.145c-.266.01-.667-.012-1.03-.248a1.505 1.505 0 0 1-.642-.968 2.636 2.636 0 0 1-.018-.872c.064-.512.238-1.096.389-1.59l.059-.192c.14-.453.258-.842.325-1.17.027-.134.04-.23.044-.295C.59 12.344 0 10.793 0 9.118 0 6.484 1.449 4.18 3.628 2.573 5.808.965 8.771 0 12 0Zm7 12c-2.014 0-3.798.613-5.057 1.557C12.685 14.501 12 15.728 12 17c0 1.271.685 2.499 1.943 3.443C15.202 21.387 16.986 22 19 22a9.292 9.292 0 0 0 2.89-.45c.31-.102.615-.081.82-.053.223.03.451.09.661.155.294.09.615.21.922.33l.98.24-.02-.066-.02-.067-.041-.135c-.098-.322-.212-.7-.279-1.033a2.963 2.963 0 0 1-.066-.654 1.49 1.49 0 0 1 .29-.878c.564-.73.863-1.544.863-2.389 0-1.271-.685-2.499-1.943-3.443C22.798 12.613 21.014 12 19 12Zm-2.5 3a1.5 1.5 0 1 1 0 3 1.5 1.5 0 0 1 0-3Zm5 0a1.5 1.5 0 1 1 0 3 1.5 1.5 0 0 1 0-3ZM12 2c-2.846 0-5.383.853-7.184 2.182C3.014 5.512 2 7.268 2 9.118c0 1.226.442 2.4 1.259 3.441.265.339.319.726.326.988.008.277-.033.559-.084.809-.088.433-.24.927-.375 1.365l-.056.184c-.066.215-.125.413-.174.593l-.046.174 1.99-.478c.425-.163.865-.326 1.264-.447.28-.084.57-.158.849-.196.259-.035.608-.055.951.056.685.221 1.412.389 2.17.495l-.005.024c.264-1.673 1.275-3.12 2.674-4.169C14.38 10.73 16.595 10 19 10c1.001 0 1.97.127 2.878.363l-.032-.008A5.05 5.05 0 0 0 22 9.118c0-1.85-1.014-3.606-2.816-4.936C17.383 2.852 14.846 2 12 2ZM8.5 6a1.5 1.5 0 1 1 0 3 1.5 1.5 0 0 1 0-3Zm7 0a1.5 1.5 0 1 1 0 3 1.5 1.5 0 0 1 0-3Z" fill="currentColor" fill-rule="evenodd"/></symbol>

<symbol id="weibo" viewBox="0 0 30 26"><path d="M13.728 5.267c1.29.42 2.096 1.27 2.405 2.545l.061.29.803-.154.064-.011c.835-.145 1.537-.152 2.214.017a3.54 3.54 0 0 1 2.662 3.22c.012.196.017.394.015.591l-.009.297c-.003.052-.006.057.026.074l.032.015c.284.137.567.29.851.46 1.6.94 2.279 2.394 2.102 4.312-.252 2.736-1.656 4.87-4.123 6.519-1.725 1.154-3.711 1.837-6.004 2.126-2.426.307-4.736.115-6.944-.606-2.04-.666-3.708-1.688-5.013-3.142C1.604 20.41.904 18.807.8 17.006l-.019-.133L.75 16.7l.005-.222.144-.756.05-.25.077-.32c.628-2.426 1.927-4.573 3.871-6.555 1.395-1.422 2.843-2.46 4.449-3.12 1.464-.601 2.931-.683 4.382-.21Zm-3.569 2.087-.24.108-.224.112c-3.049 1.62-5.199 4.042-6.435 7.255-.47 1.22-.543 2.33-.17 3.415.518 1.505 1.517 2.687 2.993 3.626 1.876 1.193 4.027 1.762 6.569 1.841l1.707-.173.466-.056.274-.04.27-.045c2.141-.375 3.916-1.167 5.355-2.46 1.445-1.298 2.187-2.811 2.187-4.611 0-.843-.34-1.468-1.038-1.893l-.118-.07-.244-.138-.278-.144-.659-.322c-.523-.25-.727-.538-.728-1.068l.007-.193.038-.622.003-.078c.003-.091.003-.175.001-.256-.01-.475-.147-.865-.43-1.182-.39-.435-.903-.558-1.626-.453l-.264.04-.273.048-.486.093-.93.191-.175.035c-.855.167-1.365-.218-1.442-1.082a7.073 7.073 0 0 0-.12-.82c-.131-.619-.48-1.005-1.093-1.202-.969-.313-1.934-.256-2.897.144Zm6.58 4.136c1.71.692 2.851 1.821 3.334 3.44.525 1.76.112 3.418-1.128 4.943-1.294 1.594-3.046 2.578-5.232 3.026l-.24.045-.249.04-.45.056-1.05.116c-1.595-.053-2.943-.393-4.135-1.105-2.723-1.628-3.434-4.783-1.664-7.408 1.05-1.56 2.558-2.623 4.491-3.246 2.226-.717 4.33-.713 6.324.093Zm-5.827 1.911-.324.123-.308.128c-1.278.553-2.23 1.357-2.842 2.458-.778 1.4-.475 2.895.787 3.883.912.715 2.028 1.044 3.298 1.065 1.324 0 2.444-.238 3.525-.738 1.199-.555 2.089-1.295 2.684-2.289.474-.794.623-1.57.414-2.363-.29-1.105-1.047-1.844-2.248-2.3-1.61-.612-3.262-.583-4.986.033Zm.884 3.125c.77.017 1.372.611 1.364 1.356-.005.82-.762 1.5-1.637 1.494-.783 0-1.406-.61-1.388-1.369.02-.813.797-1.497 1.661-1.48ZM20.606.315l.734.006 1.006.162.256.05.226.055.112.032c3.378.987 5.434 3.204 6.1 6.624.049.246.07.496.08.838l.008.347c.014.601-.403 1.05-.987 1.064-.597.015-1.035-.418-1.053-1.033-.06-2.038-.912-3.657-2.557-4.87a6.11 6.11 0 0 0-3.359-1.187l-.28-.016-.19-.016c-.506-.052-.862-.376-.946-.864-.077-.436.168-.872.59-1.084l.139-.077.122-.031Zm.582 4.139.196.01c2.008.15 3.671 1.912 3.665 3.932 0 .62-.411 1.072-1 1.083-.587.01-1.008-.41-1.045-1.032l-.017-.17c-.13-1.005-.87-1.71-1.882-1.779l-.137-.013c-.619-.086-.985-.465-.966-1.05.02-.626.488-.996 1.186-.981Z" fill="currentColor" fill-rule="nonzero"/></symbol>

<symbol id="xing" viewBox="0 0 26 26"><path d="M22 0a2 2 0 0 1 2 2v20a2 2 0 0 1-2 2H2a2 2 0 0 1-2-2V2a2 2 0 0 1 2-2Zm0 2H2v20h20V2Zm-4.97 2.152a1 1 0 0 1 .374 1.276l-.056.102-4.693 7.505 2.968 5.49a1 1 0 0 1-.305 1.293l-.1.062a1 1 0 0 1-1.293-.305l-.062-.1-3.52-6.511 5.309-8.494a1 1 0 0 1 1.378-.318Zm-6.66 2.373.05.106 1.204 3.036-3.295 4.892a1 1 0 0 1-1.718-1.017l.06-.1 2.704-4.019-.815-2.054a1 1 0 0 1 .455-1.25l.106-.048a1 1 0 0 1 1.249.454Z" fill="currentColor" fill-rule="nonzero"/></symbol>

<symbol id="youku" viewBox="0 0 24 24"><path d="M14 0c5.523 0 10 4.477 10 10v4c0 5.523-4.477 10-10 10h-4C4.477 24 0 19.523 0 14v-4C0 4.477 4.477 0 10 0Zm0 2h-4a8 8 0 0 0-8 8v4a8 8 0 0 0 8 8h4a8 8 0 0 0 8-8v-4a8 8 0 0 0-8-8ZM7.748 7.398c.354-1.071 1.61-1.525 2.648-.928l6.593 3.797c1.337.769 1.337 2.697 0 3.466l-6.594 3.797c-1.037.597-2.293.143-2.647-.928C7.226 15.02 6.91 13.447 6.91 12c0-1.447.316-3.02.838-4.602Zm1.812.899-.045.147C9.133 9.696 8.91 10.918 8.91 12c0 1.203.276 2.578.737 3.975l-.087-.273L15.99 12 9.56 8.297Z" fill="currentColor" fill-rule="nonzero"/></symbol>

<symbol id="youtube" viewBox="0 0 28 22"><path d="M14.251.052c1.292.01 2.899.082 4.61.254 2.596.261 4.865.702 6.622 1.377a2.99 2.99 0 0 1 1.808 2.042C27.725 5.39 28 7.775 28 11c0 .806-.017 1.56-.05 2.263l-.046.819c-.116 1.723-.33 3.109-.611 4.188a2.99 2.99 0 0 1-1.815 2.049c-1.784.685-4.101 1.13-6.75 1.388-1.72.168-3.311.235-4.557.242h-.347a50.67 50.67 0 0 1-4.551-.242c-2.65-.259-4.967-.703-6.756-1.39a2.989 2.989 0 0 1-1.808-2.042C.275 16.61 0 14.225 0 11c0-.806.017-1.56.05-2.263l.046-.82C.212 6.196.426 4.81.707 3.73A2.99 2.99 0 0 1 2.522 1.68C4.274 1.008 6.543.567 9.139.306a50.988 50.988 0 0 1 4.61-.254Zm-.007 2h-.48l-.776.013c-1.081.028-2.334.099-3.648.23-2.435.246-4.547.656-6.096 1.251a.99.99 0 0 0-.6.683C2.255 5.72 2 7.939 2 11l.002.453c.004.447.013.874.028 1.284l.036.794c.1 1.796.306 3.197.58 4.245a.99.99 0 0 0 .593.676c1.583.608 3.742 1.022 6.228 1.265.99.097 1.939.159 2.793.194l.821.027.748.01h.336l.75-.01.824-.027a50.333 50.333 0 0 0 2.794-.194c2.486-.243 4.645-.657 6.223-1.263a.99.99 0 0 0 .6-.683C25.745 16.28 26 14.061 26 11c0-.612-.01-1.19-.03-1.737l-.036-.794c-.1-1.796-.306-3.197-.58-4.245a.99.99 0 0 0-.593-.676c-1.554-.597-3.666-1.007-6.1-1.252a49.814 49.814 0 0 0-3.645-.231l-.772-.014ZM11 7a1 1 0 0 1 1.555-.832l6 4a1 1 0 0 1 0 1.664l-6 4A1 1 0 0 1 11 15Zm2 1.869v4.262L16.197 11 13 8.869Z" fill="currentColor" fill-rule="nonzero"/></symbol>

</svg>
