<svg viewBox="0 0 21 10" xmlns="http://www.w3.org/2000/svg">
  <path d="M1.9602 4.38C2.2402 2.91 3.6202 1.9 5.1202 1.9H8.0502C8.5702 1.9 9.0002 1.47 9.0002 0.95C9.0002 0.43 8.5702 0 8.0502 0H5.2202C2.6102 0 0.280197 1.91 0.0301974 4.51C-0.259803 7.49 2.0802 10 5.0002 10H8.0502C8.5702 10 9.0002 9.57 9.0002 9.05C9.0002 8.53 8.5702 8.1 8.0502 8.1H5.0002C3.0902 8.1 1.5802 6.36 1.9602 4.38ZM7.0002 6H13.0002C13.5502 6 14.0002 5.55 14.0002 5C14.0002 4.45 13.5502 4 13.0002 4H7.0002C6.4502 4 6.0002 4.45 6.0002 5C6.0002 5.55 6.4502 6 7.0002 6ZM14.7802 0H11.9502C11.4302 0 11.0002 0.43 11.0002 0.95C11.0002 1.47 11.4302 1.9 11.9502 1.9H14.8802C16.3802 1.9 17.7602 2.91 18.0402 4.38C18.4202 6.36 16.9102 8.1 15.0002 8.1H11.9502C11.4302 8.1 11.0002 8.53 11.0002 9.05C11.0002 9.57 11.4302 10 11.9502 10H15.0002C17.9202 10 20.2602 7.49 19.9802 4.51C19.7302 1.91 17.3902 0 14.7802 0Z" />
</svg>
