<svg viewBox="0 0 18 24" xmlns="http://www.w3.org/2000/svg"><path d="M17.473 9.204a1 1 0 0 1 .434 1.345 10.001 10.001 0 0 1-7.58 5.363l6.38 6.38a1 1 0 0 1-1.32 1.498l-.094-.083L9 17.414l-6.293 6.293a1 1 0 0 1-1.32.083l-.094-.083a1 1 0 0 1-.083-1.32l.083-.094 6.38-6.38a10.001 10.001 0 0 1-7.58-5.364 1 1 0 0 1 1.78-.91A7.998 7.998 0 0 0 9 13.998a7.998 7.998 0 0 0 7.127-4.36 1 1 0 0 1 1.346-.435ZM9 0a6 6 0 1 1 0 12A6 6 0 0 1 9 0Zm0 2a4 4 0 1 0 0 8 4 4 0 0 0 0-8Z" fill="currentColor" fill-rule="nonzero"/></svg>
