<svg viewBox="0 0 30 25" xmlns="http://www.w3.org/2000/svg"><path d="M.875 9.188a1.006 1.006 0 0 1 .247-.659l-.065.083c.018-.025.036-.05.056-.073l.01-.01 6.562-7.5a1 1 0 0 1 .753-.341h13.124a1 1 0 0 1 .753.341l6.563 7.5a1.015 1.015 0 0 1 .23.48.997.997 0 0 1-.049.535l-.008.023a.969.969 0 0 1-.195.303l.068-.081c-.015.02-.03.039-.047.058l-.02.023-13.1 14.038a.976.976 0 0 1-.525.315l-.022.005a.773.773 0 0 1-.126.018.967.967 0 0 1-.294-.017.97.97 0 0 1-.552-.326L1.145 9.87a1.014 1.014 0 0 1-.24-.44.99.99 0 0 1-.029-.226v-.017Zm18.388 1h-8.527L15 20.608l4.263-10.42Zm6.56 0h-4.399l-3.433 8.391 7.832-8.392Zm-17.248 0h-4.4l7.833 8.39-3.433-8.39Zm4.397-7.5H8.891l-4.814 5.5h4.676l4.219-5.5ZM15 3.329l-3.727 4.859h7.453L15 3.329Zm6.108-.642h-4.081l4.219 5.5h4.675l-4.813-5.5Z" fill="currentColor" fill-rule="nonzero"/></svg>
