<svg viewBox="0 0 28 28" xmlns="http://www.w3.org/2000/svg"><path d="m13.748.934.45.003c.193.147.31.351.428.558 1.338 2.367 2.675 4.734 4.012 7.104.122.217.268.311.504.355 2.769.517 5.537 1.04 8.305 1.571.52.1.677.6.32.995l-6.057 6.672c-.175.193-.388.23-.626.247-1.593.121-3.178.1-4.737-.305a6.85 6.85 0 0 1-.788-.269c-.567-.226-.639-.71-.168-1.092l4.51-3.643c.057-.046.113-.096.173-.148-2.253-1.02-6.55-.965-9.061-.103 1.27.066 2.521.208 3.747.526.425.11.83.266 1.173.556.383.325.387.695.004 1.018l-5.748 4.834c-.078.065-.154.132-.25.216.632.275 1.3.456 1.984.537 2.313.311 4.578-.014 6.827-.536 1.68-.39 3.319-.921 4.93-1.534.204-.077.408-.134.617-.022.248.131.358.392.274.696-.326 1.187-.886 2.205-2.011 2.804-.15.079-.106.18-.087.282.19.983.383 1.964.578 2.945.137.688.278 1.374.412 2.063.048.244.011.47-.2.633-.21.162-.427.141-.656.04l-8.345-3.695a.583.583 0 0 0-.542 0C11.149 25.46 8.575 26.676 6 27.888c-.188.088-.375.17-.587.101a.535.535 0 0 1-.378-.588c.05-.579.123-1.156.19-1.733a15587.904 15587.904 0 0 0 .792-6.76.962.962 0 0 1 .021-.17c.164-.523-.068-.873-.42-1.252C3.806 15.53 2.023 13.546.23 11.57L0 11.313v-.452c.092-.273.299-.384.565-.434L6.412 9.32l2.39-.45a.603.603 0 0 0 .448-.331c1.138-2.027 2.29-4.048 3.433-6.072.23-.408.468-.812.69-1.225a.596.596 0 0 1 .375-.308Zm.221 3.04L12.44 6.672l-1.81 3.205c-.242.431-.584.7-1.073.754l-.186.04-6.45 1.217 1.142 1.26 1.707 1.877 1.796 1.968a1.511 1.511 0 0 1 .335 1.173l-.855 7.249 1.604-.752 4.635-2.187-.103-.001a13.788 13.788 0 0 1-1.576-.137l-.387-.063c-1.134-.202-2.043-.523-2.84-1.062-.842-.568-.885-1.475-.107-2.127l4.961-4.172-.257-.04c-.143-.02-.296-.04-.464-.061l-.262-.03-.564-.059-.286-.025-.59-.043-.306-.019-.647-.031-.701-.026-.902-.023a1.168 1.168 0 0 1-.607-.23 1.15 1.15 0 0 1-.422-.612c-.161-.511-.004-1.032.44-1.35.199-.142.408-.27.622-.382 1.606-.846 3.388-1.29 5.565-1.477 1.48-.13 2.877-.098 4.222.113 1.323.206 2.496.53 3.579 1.012.954.425 1.082 1.509.273 2.163l-3.547 2.864.315.024c.535.032 1.096.03 1.693 0l.296-.02 1.612-1.772 2.72-2.998-3.253-.62-3.029-.556c-.754-.134-1.259-.508-1.638-1.192l-.804-1.45-2.322-4.098Zm6.723 17.362-.504.141c-.905.245-1.775.445-2.637.603a24.69 24.69 0 0 1-2.718.358l-.218.012 3.135 1.388 3.525 1.552-.626-3.185c-.068-.344-.06-.617.034-.848l.009-.021Z" fill="currentColor" fill-rule="nonzero"/></svg>
