<svg viewBox="0 0 26 26" xmlns="http://www.w3.org/2000/svg"><path d="M13 0c7.18 0 13 5.82 13 13s-5.82 13-13 13S0 20.18 0 13 5.82 0 13 0Zm0 14.763-.134.325c-.626 1.473-1.493 2.955-2.554 4.433a32.154 32.154 0 0 1-2.483 3.04l-.094.1A10.95 10.95 0 0 0 13 24c1.907 0 3.7-.485 5.265-1.34l-.094-.099a32.154 32.154 0 0 1-2.483-3.04c-1.14-1.587-2.055-3.179-2.689-4.758Zm1-4.739V10c0 2.593 1.236 5.462 3.312 8.354a30.173 30.173 0 0 0 2.634 3.176A10.98 10.98 0 0 0 24 13c0-5.738-4.393-10.45-10-10.955v7.979Zm-2-7.98C6.392 2.55 2 7.263 2 13c0 3.44 1.58 6.513 4.054 8.53l-.095.099a30.173 30.173 0 0 0 2.728-3.275c1.99-2.772 3.209-5.522 3.307-8.028l.005-.302Z" fill="currentColor" fill-rule="nonzero"/></svg>
