<svg viewBox="0 0 30 28" xmlns="http://www.w3.org/2000/svg"><path d="M15 0a8 8 0 0 1 8 8c0 1.436.128 2.76.37 3.976l2.259-.904a1 1 0 0 1 .848 1.807l-.106.05-2.49.996a13.53 13.53 0 0 0 1.92 3.758 11.37 11.37 0 0 0 2.048 2.157c.476.382.892.649 1.198.808l.166.088a1 1 0 0 1 .156 1.578c-.72.676-1.537.878-3.033.984l-.783.056-.206.019-.359.043c-.381.055-.639.13-.838.24-.235.129-.456.338-.786.753l-.213.275-.645.87c-.834 1.092-1.377 1.559-2.286 1.792-.842.215-1.474.102-2.614-.386l-.484-.215-.806-.369C15.713 26.113 15.323 26 15 26c-.372 0-.822.146-1.598.503l-.514.238c-1.366.631-2.162.847-3.108.605-.966-.248-1.588-.839-2.475-2.042l-.331-.453-.24-.317-.21-.264c-.266-.317-.471-.503-.674-.614-.313-.173-.77-.258-1.624-.32l-.565-.038c-1.493-.106-2.31-.308-3.03-.984a1 1 0 0 1 .265-1.636l.064-.032.17-.094c.034-.019.069-.04.106-.063l.246-.158c.09-.06.187-.128.291-.203a10.937 10.937 0 0 0 2.104-2.026c.945-1.178 1.708-2.564 2.243-4.176l-2.491-.998a1 1 0 0 1 .632-1.894l.11.038 2.26.904A20.44 20.44 0 0 0 7 8a8 8 0 0 1 8-8Zm0 2a6 6 0 0 0-6 6c0 4.82-1.332 8.57-3.562 11.353a13.97 13.97 0 0 1-1.658 1.75l-.213.181 1.073.079c.973.082 1.582.214 2.175.54.64.353 1.092.842 1.772 1.765l.459.624c.543.717.89 1.029 1.23 1.116.244.063.558.014 1.065-.179l.327-.133.38-.17.515-.239C13.593 24.214 14.252 24 15 24c.726 0 1.384.208 2.353.649l.562.26.38.17.325.133.276.101c.38.127.619.149.828.095.25-.064.484-.23.81-.6l.207-.246c.037-.045.074-.093.113-.143l.25-.328.352-.48.3-.395c.52-.665.894-1.017 1.43-1.312.646-.357 1.312-.482 2.451-.563l.56-.038.24-.019-.238-.204a13.505 13.505 0 0 1-1.764-1.887l-.247-.328C22.178 16.123 21 12.527 21 8a6 6 0 0 0-6-6Z" fill="currentColor" fill-rule="nonzero"/></svg>
