<svg viewBox="0 0 27 23" xmlns="http://www.w3.org/2000/svg"><path d="M15.775.127a6 6 0 0 0-3.43 2.089l-.17.217A6 6 0 0 0 11 6l-.001.76-.061-.016c-1.754-.477-3.426-1.332-4.99-2.467A19.331 19.331 0 0 1 3.593 2.26l-.172-.176-.309-.329-.28-.317-.051-.063a1 1 0 0 0-1.765.446l-.07.4c-1.18 7.166 1.41 11.686 5.4 14.053l.298.171-.07.093c-.434.546-1.096 1.041-1.943 1.474-.617.316-1.287.575-1.957.778l-.32.093-.377.098-.173.038a1 1 0 0 0-.511 1.688c.322.322.907.761 1.76 1.187C4.438 22.587 6.09 23 8 23l.337-.003c8.502-.163 14.357-6.496 14.651-14.372l.006-.205 3.713-3.713.076-.084C27.297 3.986 26.853 3 26 3l-3.805-.001-.074-.128A6 6 0 0 0 20.017.813L19.754.67a6 6 0 0 0-3.98-.542Zm3.062 2.32a4 4 0 0 1 1.83 1.953l.06.117a1 1 0 0 0 .857.483l2.001-.001-2.292 2.294A1 1 0 0 0 21 8c0 7.206-5.243 13-13 13l-.363-.006c-1.194-.04-2.246-.273-3.159-.647l-.089-.039.255-.1c.304-.127.604-.265.898-.415 1.692-.865 2.913-1.995 3.407-3.477a1 1 0 0 0-.494-1.206l-.311-.138a6.822 6.822 0 0 1-.084-.04l-.336-.174c-3.193-1.73-5.41-5.004-5.02-10.405l.012-.159.132.125c.585.539 1.228 1.07 1.925 1.577 2.158 1.566 4.524 2.667 7.063 3.09A1 1 0 0 0 13 8V6a4 4 0 0 1 5.611-3.662l.226.108Z" fill="currentColor" fill-rule="nonzero"/></svg>
