<svg viewBox="0 0 26 26" xmlns="http://www.w3.org/2000/svg"><path d="M18.5.5a7 7 0 0 1 7 7v11a7 7 0 0 1-7 7h-11a7 7 0 0 1-7-7v-11a7 7 0 0 1 7-7Zm0 2h-11a5 5 0 0 0-5 5v11a5 5 0 0 0 5 5h11a5 5 0 0 0 5-5v-11a5 5 0 0 0-5-5Zm-4.5 5v5.743l6.345-5.499a1 1 0 0 1 1.4 1.424l-.09.088-5.336 4.622 5.314 4.348a1 1 0 0 1-1.164 1.621l-.102-.073-5.5-4.5-.076-.071-.636.553c-.049.042-.1.078-.154.11L14 19.5a1 1 0 0 1-1.25.969 1.01 1.01 0 0 1-.25.031c-3.782 0-6.213-2.377-7.509-6.177-.436-1.278-.713-2.636-.867-3.991a20.488 20.488 0 0 1-.108-1.31L4 8.57 4 8.5a1 1 0 1 1 2 0l.013.424c.018.355.049.753.098 1.182.139 1.222.388 2.443.773 3.571.984 2.887 2.62 4.604 5.116 4.803V9.5h-1.5a1 1 0 0 1-.993-.883L9.5 8.5a1 1 0 0 1 .883-.993L10.5 7.5H14Z" fill="currentColor" fill-rule="nonzero"/></svg>
