<svg viewBox="0 0 28 25" xmlns="http://www.w3.org/2000/svg"><path d="M12 0c3.23 0 6.192.965 8.372 2.573C22.552 4.181 24 6.483 24 9.118c0 .664-.092 1.306-.265 1.922l.117.056c.503.25.974.538 1.405.861C26.894 13.185 28 14.957 28 17c0 1.263-.426 2.433-1.143 3.43l.017.099c.046.23.13.504.231.842l.043.142c.109.361.242.813.292 1.216.025.202.039.462-.017.727-.06.28-.214.636-.58.878-.335.222-.698.239-.916.23a3.233 3.233 0 0 1-.686-.117c-.416-.111-.89-.294-1.303-.457l-.098-.038-.15-.059-1.455-.356c-1.007.3-2.098.463-3.235.463-2.405 0-4.62-.73-6.257-1.957-1.349-1.012-2.337-2.394-2.643-3.991l.014.071a14.968 14.968 0 0 1-2.551-.527l-2.128.512a358.115 358.115 0 0 0-.366.14c-.574.222-1.204.461-1.751.605a4.125 4.125 0 0 1-.86.145c-.266.01-.667-.012-1.03-.248a1.505 1.505 0 0 1-.642-.968 2.636 2.636 0 0 1-.018-.872c.064-.512.238-1.096.389-1.59l.059-.192c.14-.453.258-.842.325-1.17.027-.134.04-.23.044-.295C.59 12.344 0 10.793 0 9.118 0 6.484 1.449 4.18 3.628 2.573 5.808.965 8.771 0 12 0Zm7 12c-2.014 0-3.798.613-5.057 1.557C12.685 14.501 12 15.728 12 17c0 1.271.685 2.499 1.943 3.443C15.202 21.387 16.986 22 19 22a9.292 9.292 0 0 0 2.89-.45c.31-.102.615-.081.82-.053.223.03.451.09.661.155.294.09.615.21.922.33l.98.24-.02-.066-.02-.067-.041-.135c-.098-.322-.212-.7-.279-1.033a2.963 2.963 0 0 1-.066-.654 1.49 1.49 0 0 1 .29-.878c.564-.73.863-1.544.863-2.389 0-1.271-.685-2.499-1.943-3.443C22.798 12.613 21.014 12 19 12Zm-2.5 3a1.5 1.5 0 1 1 0 3 1.5 1.5 0 0 1 0-3Zm5 0a1.5 1.5 0 1 1 0 3 1.5 1.5 0 0 1 0-3ZM12 2c-2.846 0-5.383.853-7.184 2.182C3.014 5.512 2 7.268 2 9.118c0 1.226.442 2.4 1.259 3.441.265.339.319.726.326.988.008.277-.033.559-.084.809-.088.433-.24.927-.375 1.365l-.056.184c-.066.215-.125.413-.174.593l-.046.174 1.99-.478c.425-.163.865-.326 1.264-.447.28-.084.57-.158.849-.196.259-.035.608-.055.951.056.685.221 1.412.389 2.17.495l-.005.024c.264-1.673 1.275-3.12 2.674-4.169C14.38 10.73 16.595 10 19 10c1.001 0 1.97.127 2.878.363l-.032-.008A5.05 5.05 0 0 0 22 9.118c0-1.85-1.014-3.606-2.816-4.936C17.383 2.852 14.846 2 12 2ZM8.5 6a1.5 1.5 0 1 1 0 3 1.5 1.5 0 0 1 0-3Zm7 0a1.5 1.5 0 1 1 0 3 1.5 1.5 0 0 1 0-3Z" fill="currentColor" fill-rule="evenodd"/></svg>
