<svg viewBox="0 0" xmlns="http://www.w3.org/2000/svg"><path d="M22 0a2 2 0 0 1 2 2v20a2 2 0 0 1-2 2H2a2 2 0 0 1-2-2V2a2 2 0 0 1 2-2Zm0 2H2v20h20V2Zm-4.97 2.152a1 1 0 0 1 .374 1.276l-.056.102-4.693 7.505 2.968 5.49a1 1 0 0 1-.305 1.293l-.1.062a1 1 0 0 1-1.293-.305l-.062-.1-3.52-6.511 5.309-8.494a1 1 0 0 1 1.378-.318Zm-6.66 2.373.05.106 1.204 3.036-3.295 4.892a1 1 0 0 1-1.718-1.017l.06-.1 2.704-4.019-.815-2.054a1 1 0 0 1 .455-1.25l.106-.048a1 1 0 0 1 1.249.454Z" fill="currentColor" fill-rule="nonzero"/></svg>
