<svg viewBox="0 0 24 24" xmlns="http://www.w3.org/2000/svg"><path d="M14 0c5.523 0 10 4.477 10 10v4c0 5.523-4.477 10-10 10h-4C4.477 24 0 19.523 0 14v-4C0 4.477 4.477 0 10 0Zm0 2h-4a8 8 0 0 0-8 8v4a8 8 0 0 0 8 8h4a8 8 0 0 0 8-8v-4a8 8 0 0 0-8-8ZM7.748 7.398c.354-1.071 1.61-1.525 2.648-.928l6.593 3.797c1.337.769 1.337 2.697 0 3.466l-6.594 3.797c-1.037.597-2.293.143-2.647-.928C7.226 15.02 6.91 13.447 6.91 12c0-1.447.316-3.02.838-4.602Zm1.812.899-.045.147C9.133 9.696 8.91 10.918 8.91 12c0 1.203.276 2.578.737 3.975l-.087-.273L15.99 12 9.56 8.297Z" fill="currentColor" fill-rule="nonzero"/></svg>
